<?xml version='1.0' encoding='utf-8'?>
<svg xmlns="http://www.w3.org/2000/svg" enable-background="new 0 0 612 792" version="1.1" viewBox="0 0 612 792">
	<path d="m229.32 545c0 0.564 0.019 1.124 0.027 1.686h26.348c-0.021-0.702-0.037-1.407-0.045-2.111-0.01-0.58-0.018-1.16-0.019-1.739-0.02-8.752 1.993-17.254 2.233-20.567 6.917-50.522 39.9-72.145 40.603-72.6 2.275 1.966 34.573 28.195 40.717 73.271 0.232 3.308 2.09 11.883 2.199 20.641 0.016 0.581 0.023 1.163 0.021 1.746-2e-3 0.453-8e-3 0.906-0.016 1.359h26.287c0.01-0.562 0.027-1.121 0.027-1.686 0-44.438-18.871-75.975-36.902-95.973h0.514c-15.414-32.495-18.191-68.848-16.604-104.93 1.518-34.486 2.652-78.986 3.951-113.48 0.709-18.846-3.809-36.292-16.58-51.511-0.774-0.922-3.188-3.236-3.849-3.659 0 0-3.071 2.771-3.843 3.69-12.771 15.22-17.288 32.665-16.579 51.51 1.298 34.493 2.433 78.993 3.951 113.48 1.579 35.907-0.087 72.666-15.955 104.69-17.903 19.767-36.486 51.129-36.486 96.181z"/>
	<path d="m447.33 224.63c-0.759 0.11-1.285 0.074-1.705 0.269-1.205 0.558-2.409 1.141-3.54 1.833-15.479 9.479-28.864 21.331-40.152 35.547-22.653 28.53-33.69 61.319-36.552 97.377-1.523 19.211-4.318 38.32-6.472 57.482-1.089 9.687-2.024 19.39-3.038 29.166 9.51-1.566 16.893 1.918 23.221 7.676 8.662 7.883 10.098 20.648 2.687 29.734-3.39 4.156-8.524 7.114-13.327 9.906-0.18 0.104-0.356 0.203-0.53 0.297 2.668 7.489 4.84 15.567 6.324 24.246 0.563-0.206 1.167-0.426 1.513-0.547 20.106-7.053 32.49-20.742 35.523-42.1 2.582-18.186-7.431-37.465-24.464-47.231-2.907-1.667-3.829-3.229-3.417-6.576 2.615-21.288 5.39-42.569 7.321-63.925 1.789-19.779 7.316-38.067 15.954-56.049 4.029-8.389 15.475-25.107 15.475-25.107s0 187.09 0 280.14h-101.05v22.549h16.932c-5.077 24.299-17.379 40.557-26.932 49.984v-76.666c1.428-5.992 5.944-14.009 19.416-18.04 0.679-0.203 1.356-0.438 2.035-0.674-0.439-3.59-0.921-6.534-1.022-8.118-0.653-5.273-1.614-10.194-2.787-14.796-2.343 0.743-4.286 1.382-5.673 1.884-8.488 3.068-21.69 14.162-24.518 16.448-2.827-2.286-16.029-13.38-24.517-16.448-1.387-0.502-3.331-1.141-5.673-1.884-1.172 4.602-2.134 9.522-2.787 14.796-0.102 1.584-0.583 4.528-1.022 8.118 0.678 0.236 1.356 0.471 2.035 0.674 13.219 3.956 17.815 11.75 19.333 17.702v76.713c-9.503-9.574-21.74-25.889-26.873-49.694h17.039v-22.549h-101.22v-280.14s11.445 16.719 15.475 25.107c8.638 17.981 14.165 36.27 15.954 56.049 1.932 21.355 4.706 42.637 7.321 63.925 0.412 3.348-0.51 4.909-3.417 6.576-17.033 9.767-27.046 29.046-24.464 47.231 3.033 21.357 15.417 35.047 35.523 42.1 0.33 0.116 0.895 0.321 1.437 0.52 1.444-8.736 3.564-16.845 6.176-24.344-0.102-0.057-0.202-0.112-0.306-0.172-4.803-2.792-9.938-5.75-13.327-9.906-7.411-9.086-5.976-21.852 2.687-29.734 6.328-5.758 13.711-9.242 23.221-7.676-1.014-9.776-1.949-19.479-3.038-29.166-2.153-19.162-4.948-38.271-6.472-57.482-2.861-36.058-13.898-68.847-36.552-97.377-11.288-14.216-24.673-26.067-40.152-35.547-1.131-0.692-2.335-1.275-3.54-1.833-0.42-0.194-0.946-0.158-1.705-0.269v354.69h82.278c12.65 59.656 66.543 86.531 66.543 86.531s54.168-25.693 66.641-86.531h82.183v-354.69z"/>
<rect x="96.601" y="138.6" width="398.98" height="574.47" fill="none" stroke="#fff" stroke-miterlimit="10"/>
</svg>